<svg width="85" height="85" viewBox="0 0 85 85" fill="none" xmlns="http://www.w3.org/2000/svg">
<path d="M84.0703 42.5C84.0703 65.4766 65.4766 84.0703 42.5 84.0703C19.5234 84.0703 0.929688 65.4766 0.929688 42.5C0.929688 19.5234 19.5234 0.929688 42.5 0.929688C65.4766 0.929688 84.0703 19.5234 84.0703 42.5ZM42.5 3.45312C20.8516 3.45312 3.45312 20.8516 3.45312 42.5C3.45312 64.1484 20.9844 81.5469 42.5 81.5469C64.1484 81.5469 81.5469 64.0156 81.5469 42.5C81.5469 20.8516 64.1484 3.45312 42.5 3.45312Z" fill="url(#paint0_linear)"/>
<path d="M42.5 3.45312C20.8516 3.45312 3.45312 20.8516 3.45312 42.5C3.45312 64.1484 20.9844 81.5469 42.5 81.5469C64.1484 81.5469 81.5469 64.0156 81.5469 42.5C81.5469 20.8516 64.1484 3.45312 42.5 3.45312ZM42.5 79.0234C22.3125 79.0234 5.97656 62.6875 5.97656 42.5C5.97656 22.3125 22.3125 5.97656 42.5 5.97656C62.6875 5.97656 79.0234 22.3125 79.0234 42.5C79.0234 62.6875 62.6875 79.0234 42.5 79.0234Z" fill="url(#paint1_linear)"/>
<path opacity="0.4" d="M42.5 84.0703C65.4766 84.0703 84.0703 65.4766 84.0703 42.5C84.0703 19.5234 65.4766 0.929688 42.5 0.929688C19.5234 0.929688 0.929688 19.5234 0.929688 42.5C0.929688 65.4766 19.5234 84.0703 42.5 84.0703ZM42.5 0C65.875 0 85 19.125 85 42.5C85 65.875 65.875 85 42.5 85C19.125 85 0 65.875 0 42.5C0 19.125 19.125 0 42.5 0Z" fill="url(#paint2_linear)"/>
<path d="M2.92188 42.6328C2.92188 20.8516 20.5859 2.92188 42.5 2.92188C64.4141 2.92188 82.0781 20.7187 82.0781 42.6328C82.0781 64.4141 64.4141 82.0781 42.5 82.0781C20.5859 82.0781 2.92188 64.4141 2.92188 42.6328ZM15.2734 15.2734C8.23437 22.3125 3.85156 32.0078 3.85156 42.6328C3.85156 53.2578 8.23437 62.9531 15.1406 69.8594C22.1797 76.7656 31.875 81.1484 42.5 81.1484C53.125 81.1484 62.8203 76.8984 69.7266 69.8594C76.7656 62.9531 81.0156 53.2578 81.0156 42.6328C81.0156 32.0078 76.6328 22.3125 69.7266 15.2734C62.8203 8.23437 53.125 3.85156 42.5 3.85156C31.875 3.85156 22.1797 8.23437 15.2734 15.2734Z" fill="white"/>
<path opacity="0.4" d="M42.5 79.1562C32.6719 79.1562 23.5078 75.3047 16.6016 68.3984C9.69531 61.4922 5.84375 52.3281 5.84375 42.5C5.84375 32.6719 9.69531 23.5078 16.6016 16.6016C23.5078 9.69531 32.6719 5.84375 42.5 5.84375C52.3281 5.84375 61.4922 9.69531 68.3984 16.6016C75.3047 23.5078 79.1562 32.6719 79.1562 42.5C79.1562 52.3281 75.3047 61.4922 68.3984 68.3984C61.4922 75.3047 52.3281 79.1562 42.5 79.1562ZM42.5 78.0937C51.9297 78.0937 60.9609 74.375 67.6016 67.7344C74.375 60.9609 77.9609 52.0625 77.9609 42.6328C77.9609 33.2031 74.2422 24.1719 67.6016 17.5312C60.8281 10.7578 51.9297 7.17187 42.5 7.17187C33.0703 7.17187 24.0391 10.8906 17.3984 17.5312C10.625 24.0391 6.90625 33.0703 6.90625 42.5C6.90625 51.9297 10.625 60.9609 17.2656 67.6016C24.0391 74.375 33.0703 78.0937 42.5 78.0937Z" fill="url(#paint3_linear)"/>
<path d="M74.7734 59.7656C74.1094 59.2344 48.4766 38.9141 48.4766 38.9141L42.5 4.78125C42.1016 4.91406 41.5703 5.3125 41.3047 5.84375L37.0547 39.0469L10.625 59.3672C10.625 59.3672 10.0937 60.0313 9.82812 60.4297C9.69531 60.6953 9.69531 61.0938 9.69531 61.4922L42.3672 48.0781L75.0391 61.4922C75.3047 60.8281 75.0391 60.1641 74.7734 59.7656Z" fill="white"/>
<path d="M42.7656 43.5625L42.5 49.6719L72.5156 61.7578C73.5781 62.2891 74.375 62.0235 75.1719 61.4922L43.1641 43.4297C43.0313 43.2969 42.7656 43.4297 42.7656 43.5625Z" fill="#565F64"/>
<path d="M42.7656 43.5625C42.7656 43.5625 44.4922 46.6172 46.4844 48.7422C49.2734 51.7969 52.9922 53.9219 52.9922 53.9219L72.5156 61.7578C73.5781 62.2891 74.375 62.0235 75.1719 61.4922L43.1641 43.4297C43.0312 43.2969 42.7656 43.4297 42.7656 43.5625Z" fill="url(#paint4_linear)"/>
<path d="M75.0391 60.2969C75.0391 60.1641 74.9062 60.0312 74.7734 59.7656L47.4141 39.7109L43.6953 42.1016C43.6953 42.1016 43.9609 42.2344 44.0937 42.1016C44.4922 41.9688 45.2891 41.8359 46.0859 42.1016C46.75 42.3672 75.0391 60.4297 75.0391 60.4297C75.0391 60.4297 75.0391 60.4297 75.0391 60.2969Z" fill="#A4AAAE" fill-opacity="0.6"/>
<path d="M74.1094 59.1016L48.6094 38.9141L47.4141 39.7109L74.7734 59.8984C74.6406 59.6328 74.375 59.3672 74.1094 59.1016Z" fill="#333E46"/>
<path d="M43.1641 41.5703C43.0313 41.7031 43.0313 41.7031 43.0313 41.7031C43.0313 41.7031 43.0312 41.9688 43.2969 41.8359C43.4297 41.7031 47.2812 39.7109 48.6094 38.9141L43.9609 7.03906C43.8281 5.84375 43.2969 5.3125 42.3672 4.91406L42.8984 41.8359L43.1641 41.5703Z" fill="#565F64"/>
<path d="M40.9062 7.03906V8.76563L37.9844 38.1172C37.9844 38.5156 38.1172 38.9141 38.5156 39.1797L40.2422 40.5078L41.4375 8.10156L41.5703 5.57812C41.1719 5.84375 41.0391 6.375 40.9062 7.03906Z" fill="#A4AAAE" fill-opacity="0.6"/>
<path d="M39.3125 41.0391L37.7188 39.7109L10.7578 59.2344C10.7578 59.2344 9.96094 59.7656 9.82812 60.2969L10.7578 59.7656L39.0469 41.9688C39.5781 41.7031 39.7109 41.4375 39.3125 41.0391Z" fill="#A4AAAE" fill-opacity="0.6"/>
<path d="M42.1016 43.5625C42.1016 43.4297 41.9688 43.2969 41.8359 43.4297L9.69531 61.625C10.4922 62.1563 11.2891 62.2891 12.3516 61.8906L42.3672 49.8047L42.1016 43.5625Z" fill="#565F64"/>
<path d="M43.0312 41.7031L43.1641 41.5703C43.0312 41.7031 43.0312 41.7031 43.0312 41.7031C43.0312 41.7031 43.0312 41.8359 43.1641 41.8359H43.2969C43.4297 41.7031 47.2812 39.7109 48.6094 38.9141L48.0781 35.0625L43.9609 7.03906C43.9609 6.50781 43.8281 6.10938 43.5625 5.84375C43.5625 5.84375 45.5547 32.6719 45.5547 35.5938C45.5547 39.4453 43.0312 41.7031 43.0312 41.7031Z" fill="url(#paint5_linear)"/>
<path d="M42.1016 43.5625C42.1016 43.4297 41.9688 43.2969 41.8359 43.4297L9.69531 61.625C10.4922 62.1563 11.2891 62.2891 12.3516 61.8906L42.3672 49.8047L42.1016 43.5625Z" fill="url(#paint6_linear)" fill-opacity="0.8"/>
<path opacity="0.8" d="M12.3516 61.7578L42.3672 49.6719L42.1016 43.8281C41.5703 45.4219 40.6406 47.1484 38.1172 48.4766C36.2578 49.5391 18.4609 58.3047 12.0859 61.3594C11.6875 61.625 11.1562 61.7578 10.8906 61.8906C11.4219 62.1562 11.8203 62.0234 12.3516 61.7578Z" fill="url(#paint7_linear)"/>
<path d="M43.1641 41.5703C43.0313 41.7031 43.0313 41.7031 43.0313 41.7031C43.0313 41.7031 43.0312 41.9688 43.2969 41.8359C43.4297 41.7031 47.2812 39.7109 48.6094 38.9141L43.9609 7.03906C43.8281 5.84375 43.2969 5.3125 42.3672 4.91406L42.8984 41.8359L43.1641 41.5703Z" fill="url(#paint8_linear)"/>
<path d="M43.1641 41.5703C43.0313 41.7031 43.0313 41.7031 43.0313 41.7031C43.0313 41.7031 43.0312 41.9688 43.2969 41.8359C43.4297 41.7031 47.2812 39.7109 48.6094 38.9141L43.9609 7.03906C43.8281 5.84375 43.2969 5.3125 42.3672 4.91406L42.8984 41.8359L43.1641 41.5703Z" fill="url(#paint9_linear)"/>
<path d="M6.77344 58.9688C5.84375 56.8438 0.53125 46.4844 6.375 26.5625H4.11719C2.92187 30.5469 1.99219 32.9375 1.46094 36.5234C1.46094 36.5234 1.19531 37.8516 1.0625 39.3125C0.929688 40.7734 0.929688 41.5703 0.929688 42.5C0.929688 50.4688 2.92188 55.1172 2.92188 55.1172C5.04688 61.7578 8.76562 67.7344 13.8125 72.25C18.1953 76.1016 24.9688 79.0234 30.5469 80.0859C29.6172 79.9531 13.6797 73.1797 6.77344 58.9688Z" fill="url(#paint10_linear)"/>
<path d="M43.0313 43.2969H41.8359C41.9688 43.2969 42.1016 43.2969 42.1016 43.4297L42.3672 49.5391H42.5L42.7656 43.4297C42.7656 43.2969 42.8984 43.1641 43.0313 43.2969Z" fill="url(#paint11_linear)"/>
<path d="M55.7812 3.05469C69.7266 8.36719 82.875 22.9766 82.875 41.4375C82.875 63.75 65.0781 81.9453 42.5 81.9453V84.0703C65.0781 84.0703 84.0703 65.4766 84.0703 42.5C84.0703 24.1719 72.3828 8.76563 55.7812 3.05469Z" fill="url(#paint12_linear)"/>
<path d="M78.0937 26.8281C68.7969 5.44531 47.8125 4.25 46.6172 4.11719C46.6172 4.11719 46.6172 4.11719 46.4844 4.11719C62.5547 7.03906 72.7812 17.5312 76.3672 28.5547V28.6875C77.9609 32.9375 78.7578 37.4531 78.8906 42.3672C79.0234 47.0156 77.9609 52.1953 75.9687 56.9766C75.8359 57.6406 75.7031 58.4375 75.5703 58.4375H77.6953C84.0703 46.4844 81.2812 34.3984 78.0937 26.8281Z" fill="url(#paint13_linear)"/>
<path d="M2.92188 42.6328C2.92188 20.8516 20.5859 2.92188 42.5 2.92188C64.4141 2.92188 82.0781 20.7187 82.0781 42.6328C82.0781 64.4141 64.4141 82.0781 42.5 82.0781C20.5859 82.0781 2.92188 64.4141 2.92188 42.6328ZM15.2734 15.2734C8.23437 22.3125 3.85156 32.0078 3.85156 42.6328C3.85156 53.2578 8.23437 62.9531 15.1406 69.8594C22.1797 76.7656 31.875 81.1484 42.5 81.1484C53.125 81.1484 62.8203 76.8984 69.7266 69.8594C76.7656 62.9531 81.0156 53.2578 81.0156 42.6328C81.0156 32.0078 76.6328 22.3125 69.7266 15.2734C62.8203 8.23437 53.125 3.85156 42.5 3.85156C31.875 3.85156 22.1797 8.23437 15.2734 15.2734Z" fill="#FBFBFB"/>
<path d="M10.4922 59.5L37.5859 39.9766C39.0469 40.7734 41.4375 41.8359 41.7031 41.8359C41.9688 41.9688 41.9688 41.7031 41.9688 41.7031L38.6484 38.9141C38.25 38.6484 38.1172 38.25 38.1172 37.8516L41.3047 5.84375C41.1719 5.97656 41.1719 6.24219 41.0391 6.375C40.9062 6.64063 40.9062 6.77344 40.9062 7.03906L36.2578 39.0469L10.7578 59.1016C10.625 59.2344 10.4922 59.3672 10.4922 59.5Z" fill="#333F47"/>
<defs>
<linearGradient id="paint0_linear" x1="10.625" y1="15.8047" x2="74.375" y2="69.1953" gradientUnits="userSpaceOnUse">
<stop stop-color="white"/>
<stop offset="0.1" stop-color="#CDD0D0"/>
<stop offset="0.2" stop-color="#A5ACAF"/>
<stop offset="0.3" stop-color="#98A0A4"/>
<stop offset="0.4" stop-color="#828A8F"/>
<stop offset="0.5" stop-color="#667075"/>
<stop offset="0.6" stop-color="#535C63"/>
<stop offset="0.7" stop-color="#475158"/>
<stop offset="0.8" stop-color="#434D54"/>
<stop offset="1" stop-color="#475157"/>
</linearGradient>
<linearGradient id="paint1_linear" x1="12.6172" y1="17.3984" x2="72.3828" y2="67.6016" gradientUnits="userSpaceOnUse">
<stop stop-color="#0B1F2A"/>
<stop offset="0.2" stop-color="#333F47"/>
<stop offset="0.5" stop-color="#81898D"/>
<stop offset="0.7" stop-color="#B3B8B8"/>
<stop offset="0.8" stop-color="#DEE0DD"/>
<stop offset="1" stop-color="#FBFBFB"/>
</linearGradient>
<linearGradient id="paint2_linear" x1="57.073" y1="82.486" x2="27.987" y2="2.53287" gradientUnits="userSpaceOnUse">
<stop stop-color="#E1E3E1"/>
<stop offset="0.1" stop-color="#C1C5C4"/>
<stop offset="0.3" stop-color="#9BA1A2"/>
<stop offset="0.5" stop-color="#7D8487"/>
<stop offset="0.7" stop-color="#687074" stop-opacity="0"/>
<stop offset="0.8" stop-color="#5B6469" stop-opacity="0"/>
<stop offset="1" stop-color="#576065" stop-opacity="0"/>
</linearGradient>
<linearGradient id="paint3_linear" x1="24.1719" y1="10.7578" x2="60.8281" y2="74.2422" gradientUnits="userSpaceOnUse">
<stop stop-color="#E1E3E1"/>
<stop offset="0.1" stop-color="#C1C5C4"/>
<stop offset="0.3" stop-color="#9BA1A2"/>
<stop offset="0.5" stop-color="#7D8487"/>
<stop offset="0.7" stop-color="#687074" stop-opacity="0"/>
<stop offset="0.8" stop-color="#5B6469" stop-opacity="0"/>
<stop offset="1" stop-color="#576065" stop-opacity="0"/>
</linearGradient>
<linearGradient id="paint4_linear" x1="59.1016" y1="52.3281" x2="56.8438" y2="56.0469" gradientUnits="userSpaceOnUse">
<stop stop-color="#27343C"/>
<stop offset="1" stop-color="#00111E" stop-opacity="0"/>
</linearGradient>
<linearGradient id="paint5_linear" x1="52.5937" y1="38.6484" x2="48.875" y2="32.6719" gradientUnits="userSpaceOnUse">
<stop offset="0.1" stop-color="#02131F"/>
<stop offset="0.9" stop-color="#02131F" stop-opacity="0"/>
</linearGradient>
<linearGradient id="paint6_linear" x1="42.5" y1="48.3438" x2="36.9219" y2="49.9375" gradientUnits="userSpaceOnUse">
<stop offset="0.2" stop-color="#02131F"/>
<stop offset="0.9" stop-color="#02131F" stop-opacity="0"/>
</linearGradient>
<linearGradient id="paint7_linear" x1="27.625" y1="55.6484" x2="26.8281" y2="53.6562" gradientUnits="userSpaceOnUse">
<stop stop-color="#02131F"/>
<stop offset="0.1" stop-color="#02131F"/>
<stop offset="1" stop-color="#02131F" stop-opacity="0"/>
</linearGradient>
<linearGradient id="paint8_linear" x1="47.2812" y1="22.8437" x2="42.7656" y2="23.375" gradientUnits="userSpaceOnUse">
<stop offset="0.3" stop-color="#02131F"/>
<stop offset="0.8" stop-color="#02131F" stop-opacity="0"/>
</linearGradient>
<linearGradient id="paint9_linear" x1="47.4141" y1="22.7109" x2="44.3594" y2="23.1094" gradientUnits="userSpaceOnUse">
<stop offset="0.4" stop-color="#27343C"/>
<stop offset="1" stop-color="#3B474E" stop-opacity="0"/>
</linearGradient>
<linearGradient id="paint10_linear" x1="-0.53125" y1="43.6953" x2="36.5234" y2="65.0781" gradientUnits="userSpaceOnUse">
<stop stop-color="#25323B" stop-opacity="0"/>
<stop offset="0.1" stop-color="#27343C"/>
</linearGradient>
<linearGradient id="paint11_linear" x1="42.5" y1="49.6719" x2="42.5" y2="43.2969" gradientUnits="userSpaceOnUse">
<stop offset="0.3" stop-color="#A5ABAF"/>
<stop offset="1" stop-color="#A5ABAF" stop-opacity="0"/>
</linearGradient>
<linearGradient id="paint12_linear" x1="63.3516" y1="3.05469" x2="63.3516" y2="84.0703" gradientUnits="userSpaceOnUse">
<stop stop-color="#6B7378"/>
<stop offset="0.2" stop-color="#333F47"/>
<stop offset="0.5" stop-color="#27343C"/>
<stop offset="0.8" stop-color="#333F47"/>
<stop offset="1" stop-color="#434D54"/>
</linearGradient>
<linearGradient id="paint13_linear" x1="76.1016" y1="10.7578" x2="58.1719" y2="37.0547" gradientUnits="userSpaceOnUse">
<stop offset="0.7" stop-color="#49545B"/>
<stop offset="0.8" stop-color="white" stop-opacity="0"/>
</linearGradient>
</defs>
</svg>
