<?xml version="1.0" encoding="UTF-8"?>
<svg fill="none" viewBox="0 0 62 54" xmlns="http://www.w3.org/2000/svg">
<g clip-path="url(#h)">
<path d="m59.867 20.121c-0.5729-0.16-1.2109-0.2356-2.5547-0.4015-5.562-0.2281-19.307-0.7626-26.312-0.7626-7.0041 0-20.75 0.5342-26.311 0.7626-1.3445 0.1659-1.9831 0.2415-2.5556 0.4015-1.7487 0.4123-2.1334 1.04-2.1334 2.2924v8.5836c0 1.2527 1.342 2.0968 2.267 2.267 0.92566 0.1714 1.5112 0.24 2.485 0.3326 4.9746 0.3082 16.516 0.9505 26.248 0.9607 9.7324-0.0093 21.273-0.6522 26.248-0.9607 0.9734-0.0926 1.5593-0.1615 2.4853-0.3326 0.9247-0.1705 2.2667-1.0143 2.2667-2.267v-8.5836c0-1.2524-0.3844-1.8801-2.1331-2.2924z" fill="url(#g)"/>
<path d="m8.6955 20.458c2.7367-9.5201 11.729-16.505 22.403-16.505 10.644 0 19.617 6.9468 22.381 16.429 0.0087 0.0335 0.0145 0.0508 0.0241 0.0831 1.5866-0.1783 3.008-0.4535 4.0124-0.7217-0.0183-0.0611-0.023-0.0735-0.0388-0.1336-3.1406-11.295-13.761-19.606-26.378-19.606-12.66 0-23.308 8.3654-26.41 19.716 1.3953 0.3823 2.4174 0.5425 4.0071 0.7391z" fill="url(#f)"/>
<path d="m53.414 32.936c-0.0276 0.0847-0.0583 0.178-0.0725 0.2242-2.91 9.2541-11.767 15.985-22.242 15.985-10.559 0-19.471-6.8346-22.31-16.2-1.7354 0.3072-2.3216 0.4241-4.0365 0.6523 3.1775 11.24 13.768 19.497 26.347 19.497 12.584 0 23.178-8.2664 26.35-19.515-1.511-0.1866-2.401-0.3277-4.035-0.6433z" fill="url(#e)"/>
<path d="m9.2543 20.438c0.65875-0.2722 1.2961-0.7062 2.2897-0.9855 2.962-7.6957 10.599-13.176 19.554-13.176 8.928 0 16.546 5.4464 19.526 13.105 0.0105 0.0261 0.0214 0.0577 0.0297 0.0772 0.5128 0.1776 2.0234 0.7902 2.4934 0.9951 0.0666 0.0016 0.2089 0.0065 0.3558 0.0105-0.0086-0.0275-0.0166-0.0552-0.0241-0.083-2.7646-9.4789-11.738-16.424-22.381-16.424-10.672 0-19.664 6.9821-22.401 16.5 0.1581 4e-4 0.45911-0.0133 0.55707-0.0201z" fill="url(#d)"/>
<path d="m30.929 4.6013c9.9861 0 18.838 5.9544 22.191 15.769l0.0273 0.0834c0.0521 0 0.2421 0.0069 0.3559 0.0106-9e-3 -0.0357-0.0183-0.0564-0.0242-0.0831-2.7646-9.4789-11.738-16.423-22.381-16.423-10.672 0-19.664 6.9821-22.401 16.5 0.21328-0.0034 0.31589-0.0034 0.55769-0.0205 2.9977-9.318 11.762-15.837 21.675-15.837z" fill="#fff"/>
<path d="m52.848 32.962c-0.7173 0.4008-1.6104 0.7864-2.3243 1.0118-0.0097 0.0229-0.0503 0.1246-0.059 0.1485-3.0882 7.4468-10.595 12.704-19.366 12.704-8.8257 0-16.371-5.3205-19.424-12.841-0.8212-0.2278-2.0488-0.7877-2.5135-1.0214-0.17391-0.0084-0.26753-0.0133-0.37448-0.0189 2.8393 9.3642 11.753 16.2 22.312 16.2 10.511 0 19.39-6.7732 22.271-16.071 0.0062-0.0179 0.0381-0.1202 0.0449-0.1376-0.1664 0.0065-0.421 0.0267-0.5673 0.0267z" fill="url(#c)"/>
<path d="m59.37 20.742c-1.4732-0.1792-2.4776-0.16-6.0661-0.2837-0.1631-0.0059-0.3289-0.0108-0.4973-0.0167-6.5069-0.2232-16.281-0.5214-21.807-0.5214-5.5251 0-15.299 0.2982-21.807 0.5214-0.16802 0.0059-0.33325 0.0108-0.496 0.0167-3.5892 0.1237-4.5933 0.1045-6.0667 0.2837-1.4731 0.1807-2.6304 0.8258-2.6304 1.9229v7.9598c0 1.0977 1.3941 1.9865 2.63 1.9865 0 0 15.731 0.9712 28.37 0.9827 12.639-0.0115 28.37-0.9827 28.37-0.9827 1.2359 0 2.63-0.8888 2.63-1.9865v-7.9598c0-1.0971-1.1569-1.7422-2.63-1.9229z" fill="url(#b)"/>
<path d="m52.848 32.962c-3.0873 9.1583-11.77 15.538-21.577 15.538-9.9072 0-18.698-5.8609-22.11-15.538-0.12524-0.0065-0.24924-0.0115-0.37169-0.0186 2.8386 9.3644 11.754 16.2 22.313 16.2 10.562 0 19.479-6.8402 22.315-16.21-0.1866 0.0087-0.376 0.0189-0.5692 0.0279z" fill="#fff"/>
<path d="m52.866 32.962-0.0189 6e-4c-0.7174 0.4008-1.6098 0.7865-2.3244 1.0118-0.0096 0.023-0.0502 0.1247-0.0586 0.1485-0.9771 2.3566-2.3969 4.4938-4.1608 6.315 2.7609-2.0184 5.0127-4.5684 6.5627-7.4759z" fill="#8C8C8C"/>
<path d="m16.489 41.03c-2.0764-1.9778-3.7293-4.372-4.8143-7.0457-0.8212-0.2282-2.0485-0.7884-2.5135-1.0221 0.4969 1.0301 1.0828 2.0149 1.7509 2.9432 1.3668 1.78 3.0234 3.3666 4.9091 4.7092 0.2195 0.1438 0.4421 0.2821 0.6678 0.4154z" fill="#4D4D4D"/>
<path d="m8.7877 32.945v-6e-4l-0.00713 0.0012c-1.7298 0.3066-2.3166 0.4241-4.0291 0.651 0.13795 0.4899 0.29079 0.9725 0.45726 1.4503l3.579-2.1019z" fill="#252525"/>
<path d="m43.597 24.267c-0.5171-1.1557-0.3335-1.0345-1.4592-1.0642-0.0914-0.031-0.3354-0.031-0.6695-0.031-0.3336 0-0.395 0-0.669 0.031-1.0639 0-0.8817-0.0608-1.2462 0.6993 0 0-1.8262 4.105-2.6161 5.8079l-0.0304 0.0607c-0.1519 0.3035-0.0604 0.3035 0.1823 0.3035h1.6427c0.1221 0 0.1823-0.0595 0.2126-0.1215 0 0 0.2434-0.5171 0.5475-1.2465h4.0142c0.3044 0.6997 0.5171 1.2161 0.5171 1.2465 0.0303 0.0914 0.1218 0.1215 0.2126 0.1215h1.7032c0.2433 0 0.3044 0.0319 0.2132-0.1823-0.3047-0.7294-2.2812-4.9872-2.555-5.6249zm-3.4977 2.9797c0.5171-1.2161 1.0348-2.4019 1.0348-2.4325 0.0307-0.0611 0.0914-0.0915 0.1823-0.0915 0.0306-0.031 0.1224-0.031 0.2132-0.031 0.0611 0 0.1516 0 0.1823 0.031 0.0605 0 0.1225 0.0304 0.1516 0.1218 0.1228 0.3339 0.5778 1.3684 1.0035 2.4022h-2.7677zm-21.896-4.1357c0.1519 0 0.1826 0.0605 0.1826 0.1823v6.5084c0 0.1513-0.0307 0.2133-0.2127 0.2133h-1.5816c-0.182 0-0.2124-0.031-0.2124-0.2133v-6.5084c0-0.1218 0.0304-0.1823 0.1516-0.1823h1.6725zm-3.3756 0.0605c0.182 0 0.2133 0.0604 0.2133 0.2133v6.4777c0 0.1829-0.0313 0.2133-0.2133 0.2133h-1.8554c-1.0943 0-1.1857 0-1.5503-0.6076-0.7604-1.1858-3.0417-4.6832-3.0417-4.6832v5.0781c0 0.1832-0.03038 0.213-0.21235 0.213h-1.369c-0.18228 0-0.21297-0.0298-0.21297-0.213v-6.4783c0-0.1523 0.03069-0.2133 0.21297-0.2133h1.5813c1.1861 0 1.338-0.0301 1.7645 0.5781 0.3342 0.5478 3.1016 4.805 3.1016 4.805v-5.1698c0-0.1523 0.0304-0.2133 0.2133-0.2133h1.368zm40.599 0c0.1835 0 0.2133 0.0604 0.2133 0.2133v6.4777c0 0.1829-0.0304 0.2133-0.2133 0.2133h-1.8535c-1.0958 0-1.1873 0-1.5518-0.6076-0.7611-1.1867-3.0417-4.6838-3.0417-4.6838v5.0784c0 0.1829-0.0304 0.2127-0.2133 0.2127h-1.3677c-0.1823 0-0.2136-0.0298-0.2136-0.2127v-6.478c0-0.1523 0.0316-0.2133 0.2136-0.2133h1.581c1.186 0 1.3385-0.0301 1.7635 0.5781 0.3652 0.5478 3.1025 4.805 3.1025 4.805v-5.1698c0-0.1523 0.0307-0.2133 0.2133-0.2133h1.3677zm-30.259 2.6467c1.2168 0.1213 2.099 0.3339 2.3421 1.4899 0 0.0905 0.0307 0.3949 0.0307 0.7297 0 0.2133 0 0.4861-0.0611 0.7298-0.2123 1.0946-1.0342 1.3072-2.3107 1.3072h-5.1101c-0.1826 0-0.2133-0.0297-0.2133-0.2126v-1.0946c0-0.1829 0.0307-0.2133 0.2133-0.2133h5.1693c0.2133 0 0.274-0.0605 0.3041-0.2133v-0.456c-0.0307-0.1221-0.0608-0.3044-0.3342-0.3342-0.5781-0.0304-2.2807-0.1829-3.437-0.3041-1.4901-0.1522-1.8547-0.7902-1.9158-1.3379-0.0303-0.1829-0.0303-0.426-0.0303-0.6389 0-0.1826 0-0.456 0.0303-0.6693 0.2133-0.9737 0.9434-1.4291 2.2199-1.4291h4.9569c0.1833 0 0.2443 0.031 0.2443 0.1826v1.1256c0 0.1509-0.061 0.2123-0.2443 0.1819h-4.8654c-0.213 0-0.3038 0.0912-0.3348 0.3038v0.2738c0 0.1522 0.0914 0.274 0.3041 0.3035 0.5791 0.062 2.3727 0.2139 3.042 0.2755zm8.7882 0c1.2177 0.1213 2.099 0.3339 2.3427 1.4899 0 0.0905 0.0304 0.3949 0.0304 0.7297 0 0.2133 0 0.4861-0.0608 0.7298-0.2123 1.0946-1.0332 1.3072-2.311 1.3072h-5.1098c-0.1826 0-0.2132-0.0297-0.2132-0.2126v-1.0946c0-0.1829 0.0306-0.2133 0.2132-0.2133h5.1702c0.2127 0 0.2725-0.0605 0.3038-0.2133v-0.456c-0.0316-0.1221-0.0917-0.3044-0.3348-0.3342-0.5775-0.0304-2.2807-0.1829-3.436-0.3041-1.4908-0.1522-1.8247-0.7902-1.9164-1.3379-0.0304-0.1829-0.0304-0.426-0.0304-0.6389 0-0.1826 0-0.456 0.0304-0.6693 0.2132-0.9737 0.943-1.4291 2.2199-1.4291h4.9578c0.1817 0 0.2433 0.031 0.2433 0.1826v1.1256c0 0.1509-0.0616 0.2123-0.2433 0.1819h-4.8664c-0.2126 0-0.3035 0.0912-0.3345 0.3038v0.2738c0 0.1522 0.0611 0.274 0.3048 0.3035 0.5778 0.062 2.3715 0.2139 3.0401 0.2755z" fill="url(#a)"/>
</g>
<defs>
<linearGradient id="g" x1="31" x2="31" y1=".78689" y2="44.001" gradientUnits="userSpaceOnUse">
<stop stop-color="#fff" offset=".194"/>
<stop stop-color="#F8F8F8" offset=".208"/>
<stop stop-color="#AEAEAE" offset=".366"/>
<stop stop-color="#707070" offset=".513"/>
<stop stop-color="#404040" offset=".647"/>
<stop stop-color="#1D1D1D" offset=".764"/>
<stop stop-color="#080808" offset=".86"/>
<stop offset=".922"/>
</linearGradient>
<radialGradient id="f" cx="0" cy="0" r="1" gradientTransform="translate(13.596 -10.67) scale(43.234)" gradientUnits="userSpaceOnUse">
<stop stop-color="#fff" offset=".202"/>
<stop stop-color="#FDFDFD" offset=".382"/>
<stop stop-color="#F4F4F4" offset=".487"/>
<stop stop-color="#E6E6E6" offset=".573"/>
<stop stop-color="#D2D2D2" offset=".648"/>
<stop stop-color="#C4C4C4" offset=".689"/>
<stop stop-color="#333" offset="1"/>
</radialGradient>
<radialGradient id="e" cx="0" cy="0" r="1" gradientTransform="translate(118.22 58.579) scale(90.04)" gradientUnits="userSpaceOnUse">
<stop stop-color="#fff" offset=".202"/>
<stop stop-color="#E4E4E4" offset=".368"/>
<stop stop-color="#C4C4C4" offset=".594"/>
<stop stop-color="#333" offset="1"/>
</radialGradient>
<radialGradient id="d" cx="0" cy="0" r="1" gradientTransform="translate(23.98 38.71) scale(27.642)" gradientUnits="userSpaceOnUse">
<stop stop-color="#fff" offset=".202"/>
<stop stop-color="#E4E4E4" offset=".368"/>
<stop stop-color="#C4C4C4" offset=".594"/>
<stop stop-color="#333" offset="1"/>
</radialGradient>
<radialGradient id="c" cx="0" cy="0" r="1" gradientTransform="translate(46.287 66.975) scale(52.45 52.45)" gradientUnits="userSpaceOnUse">
<stop stop-color="#fff" offset=".202"/>
<stop stop-color="#E4E4E4" offset=".368"/>
<stop stop-color="#C4C4C4" offset=".594"/>
<stop stop-color="#333" offset="1"/>
</radialGradient>
<radialGradient id="b" cx="0" cy="0" r="1" gradientTransform="translate(30.585 5.4724) scale(41.68 41.68)" gradientUnits="userSpaceOnUse">
<stop stop-color="#fff" offset=".202"/>
<stop stop-color="#FDFDFD" offset=".397"/>
<stop stop-color="#F4F4F4" offset=".51"/>
<stop stop-color="#E6E6E6" offset=".603"/>
<stop stop-color="#D2D2D2" offset=".684"/>
<stop stop-color="#C4C4C4" offset=".728"/>
<stop stop-color="#4D4D4D" offset="1"/>
</radialGradient>
<radialGradient id="a" cx="0" cy="0" r="1" gradientTransform="translate(31.55 9.6462) scale(28.074 28.074)" gradientUnits="userSpaceOnUse">
<stop stop-color="#4D4D4D" offset=".111"/>
<stop stop-color="#494949" offset=".248"/>
<stop stop-color="#404040" offset=".355"/>
<stop stop-color="#2F2F2F" offset=".451"/>
<stop stop-color="#181818" offset=".541"/>
<stop offset=".611"/>
</radialGradient>
<clipPath id="h">
<rect width="62" height="53.097" fill="#fff"/>
</clipPath>
</defs>
</svg>
